<svg xmlns="http://www.w3.org/2000/svg" xmlns:xlink="http://www.w3.org/1999/xlink" viewBox="0 0 500 500"><defs><style>.cls-1{isolation:isolate;}.cls-2{fill:url(#linear-gradient);}.cls-3{fill:url(#linear-gradient-2);}.cls-4{fill:url(#linear-gradient-3);}.cls-5{fill:url(#linear-gradient-4);}.cls-6{fill:#fff;}.cls-7{fill:url(#linear-gradient-5);}.cls-60,.cls-8{fill:#fff3a9;}.cls-8{stroke:#eda506;}.cls-12,.cls-13,.cls-14,.cls-15,.cls-16,.cls-17,.cls-60,.cls-8{stroke-miterlimit:10;}.cls-9{opacity:0.4;mix-blend-mode:screen;}.cls-10{opacity:0.2;mix-blend-mode:multiply;}.cls-11{fill:#e57c09;}.cls-12,.cls-13,.cls-14,.cls-15,.cls-16,.cls-17{fill:none;}.cls-12,.cls-14,.cls-15,.cls-16,.cls-17{stroke-linecap:round;}.cls-12{stroke-width:5px;stroke:url(#linear-gradient-6);}.cls-13{stroke-width:6px;stroke:url(#linear-gradient-7);}.cls-14,.cls-15,.cls-16,.cls-17{stroke-width:9px;}.cls-14{stroke:url(#linear-gradient-8);}.cls-15{stroke:url(#linear-gradient-9);}.cls-16{stroke:url(#linear-gradient-10);}.cls-17{stroke:url(#linear-gradient-11);}.cls-18{fill:url(#linear-gradient-12);}.cls-19{fill:url(#linear-gradient-13);}.cls-20{fill:url(#linear-gradient-14);}.cls-21{fill:url(#linear-gradient-15);}.cls-22{fill:#737373;}.cls-23{fill:url(#linear-gradient-16);}.cls-24{fill:url(#linear-gradient-17);}.cls-25{fill:url(#linear-gradient-18);}.cls-26{fill:url(#linear-gradient-19);}.cls-27{fill:url(#linear-gradient-20);}.cls-28{fill:url(#linear-gradient-21);}.cls-29{fill:url(#linear-gradient-22);}.cls-30{fill:url(#linear-gradient-23);}.cls-31{fill:url(#linear-gradient-24);}.cls-32{fill:url(#linear-gradient-25);}.cls-33{fill:url(#linear-gradient-26);}.cls-34{fill:url(#linear-gradient-27);}.cls-35{fill:url(#linear-gradient-28);}.cls-36{fill:url(#linear-gradient-29);}.cls-37{fill:url(#linear-gradient-30);}.cls-38{fill:url(#linear-gradient-31);}.cls-39{font-size:16px;font-family:SpaceMono-Bold, Space Mono;font-weight:700;}.cls-40{fill:url(#linear-gradient-32);}.cls-41{fill:url(#linear-gradient-33);}.cls-42{fill:url(#linear-gradient-34);}.cls-43{fill:url(#linear-gradient-35);}.cls-44{fill:url(#linear-gradient-36);}.cls-45{fill:url(#linear-gradient-37);}.cls-46{fill:url(#linear-gradient-38);}.cls-47{fill:url(#linear-gradient-39);}.cls-48{fill:url(#linear-gradient-40);}.cls-49{fill:url(#linear-gradient-41);}.cls-50{fill:url(#linear-gradient-42);}.cls-51{fill:url(#linear-gradient-43);}.cls-52{fill:url(#linear-gradient-44);}.cls-53{fill:url(#linear-gradient-45);}.cls-54{fill:url(#linear-gradient-46);}.cls-55{fill:url(#linear-gradient-47);}.cls-56{fill:url(#linear-gradient-48);}.cls-57{fill:url(#linear-gradient-49);}.cls-58{fill:url(#linear-gradient-50);}.cls-59{fill:url(#linear-gradient-51);}.cls-60{stroke:#dd9607;}.cls-61{fill:#e08500;}.cls-62{fill:#f29100;}.cls-63{fill:#dc942d;}.cls-64{fill:#f1b73c;}.cls-65{fill:url(#linear-gradient-52);}.cls-66{fill:#e29930;}.cls-67{fill:#ffefb4;}.cls-68{fill:#ffe275;}.cls-69{fill:#fff3c8;}.cls-70{fill:#cf7c00;}</style><linearGradient id="linear-gradient" y1="250" x2="500" y2="250" gradientUnits="userSpaceOnUse"><stop offset="0.1" stop-color="#ffe798"/><stop offset="0.73" stop-color="#fca204"/></linearGradient><linearGradient id="linear-gradient-2" x1="15.75" y1="250" x2="484.25" y2="250" gradientUnits="userSpaceOnUse"><stop offset="0.1" stop-color="#fcdd04"/><stop offset="1" stop-color="#fce404"/></linearGradient><linearGradient id="linear-gradient-3" x1="18.88" y1="250" x2="481.12" y2="250" gradientUnits="userSpaceOnUse"><stop offset="0.1" stop-color="#fcb504"/><stop offset="0.73" stop-color="#fcb804"/></linearGradient><linearGradient id="linear-gradient-4" x1="30.47" y1="250" x2="469.53" y2="250" gradientUnits="userSpaceOnUse"><stop offset="0" stop-color="#e89e67"/><stop offset="0.73" stop-color="#b95a2e"/><stop offset="1" stop-color="#b86434"/></linearGradient><linearGradient id="linear-gradient-5" x1="47.73" x2="452.27" xlink:href="#linear-gradient"/><linearGradient id="linear-gradient-6" x1="158.48" y1="230" x2="341.52" y2="230" gradientUnits="userSpaceOnUse"><stop offset="0" stop-color="#bfffff"/><stop offset="0.54" stop-color="#ffe6ff"/><stop offset="1" stop-color="#cafbff"/></linearGradient><linearGradient id="linear-gradient-7" x1="140.5" x2="359.5" xlink:href="#linear-gradient-6"/><linearGradient id="linear-gradient-8" x1="107.47" x2="214.84" xlink:href="#linear-gradient-6"/><linearGradient id="linear-gradient-9" x1="283.47" x2="390.84" xlink:href="#linear-gradient-6"/><linearGradient id="linear-gradient-10" x1="226.45" y1="359.79" x2="273.55" y2="278.21" xlink:href="#linear-gradient-6"/><linearGradient id="linear-gradient-11" x1="226.45" y1="183.79" x2="273.55" y2="102.21" xlink:href="#linear-gradient-6"/><linearGradient id="linear-gradient-12" x1="200.95" y1="363.51" x2="231.25" y2="363.51" gradientTransform="translate(-107.19 98.47) rotate(-18.24)" xlink:href="#linear-gradient-3"/><linearGradient id="linear-gradient-13" x1="215.68" y1="364.55" x2="220.59" y2="364.55" gradientTransform="translate(-107.19 98.47) rotate(-18.24)" xlink:href="#linear-gradient-3"/><linearGradient id="linear-gradient-14" x1="220.24" y1="345.95" x2="224.48" y2="345.95" gradientTransform="translate(192.49 -64.21) rotate(28.57)" gradientUnits="userSpaceOnUse"><stop offset="0.55" stop-color="#a05629"/><stop offset="0.63" stop-color="#b16735"/><stop offset="0.73" stop-color="#c1753f"/><stop offset="0.89" stop-color="#d5874c"/><stop offset="1" stop-color="#dc8e51"/></linearGradient><linearGradient id="linear-gradient-15" x1="205.73" y1="334.35" x2="437.38" y2="334.35" gradientTransform="matrix(1.2, -0.45, 0.27, 0.97, -141.66, 117.24)" xlink:href="#linear-gradient"/><linearGradient id="linear-gradient-16" x1="226.96" y1="326.86" x2="437.38" y2="326.86" gradientTransform="matrix(1.22, -0.46, 0.26, 0.98, -152.36, 123.07)" gradientUnits="userSpaceOnUse"><stop offset="0.71" stop-color="#ef7902"/><stop offset="1" stop-color="#ffdd25"/></linearGradient><linearGradient id="linear-gradient-17" x1="227.93" y1="349.18" x2="238.91" y2="349.18" gradientTransform="translate(-107.19 98.47) rotate(-18.24)" xlink:href="#linear-gradient-16"/><linearGradient id="linear-gradient-18" x1="206.02" y1="356.86" x2="262.38" y2="356.86" gradientTransform="translate(-107.19 98.47) rotate(-18.24)" xlink:href="#linear-gradient-3"/><linearGradient id="linear-gradient-19" x1="95.48" y1="385.18" x2="216.98" y2="385.18" gradientTransform="translate(-107.19 98.47) rotate(-18.24)" xlink:href="#linear-gradient-16"/><linearGradient id="linear-gradient-20" x1="207.21" y1="347.53" x2="234.41" y2="347.53" gradientTransform="translate(-107.19 98.47) rotate(-18.24)" xlink:href="#linear-gradient-16"/><linearGradient id="linear-gradient-21" x1="481.96" y1="294.82" x2="489.75" y2="294.82" gradientTransform="translate(-107.19 98.47) rotate(-18.24)" xlink:href="#linear-gradient-16"/><linearGradient id="linear-gradient-22" x1="265.53" y1="384.8" x2="295.83" y2="384.8" gradientTransform="matrix(-0.95, -0.31, -0.31, 0.95, 676.65, 98.47)" xlink:href="#linear-gradient-3"/><linearGradient id="linear-gradient-23" x1="280.27" y1="385.84" x2="285.18" y2="385.84" gradientTransform="matrix(-0.95, -0.31, -0.31, 0.95, 676.65, 98.47)" xlink:href="#linear-gradient-3"/><linearGradient id="linear-gradient-24" x1="276.98" y1="345.95" x2="281.22" y2="345.95" gradientTransform="translate(689.64 516.32) rotate(151.43)" xlink:href="#linear-gradient-14"/><linearGradient id="linear-gradient-25" x1="257.3" y1="358.01" x2="488.95" y2="358.01" gradientTransform="matrix(-1.2, -0.45, -0.27, 0.97, 711.13, 117.24)" xlink:href="#linear-gradient"/><linearGradient id="linear-gradient-26" x1="277.36" y1="350.73" x2="487.78" y2="350.73" gradientTransform="matrix(-1.22, -0.46, -0.26, 0.98, 721.83, 123.07)" xlink:href="#linear-gradient-16"/><linearGradient id="linear-gradient-27" x1="292.52" y1="370.47" x2="303.49" y2="370.47" gradientTransform="matrix(-0.95, -0.31, -0.31, 0.95, 676.65, 98.47)" xlink:href="#linear-gradient-16"/><linearGradient id="linear-gradient-28" x1="270.61" y1="378.15" x2="326.96" y2="378.15" gradientTransform="matrix(-0.95, -0.31, -0.31, 0.95, 676.65, 98.47)" xlink:href="#linear-gradient-3"/><linearGradient id="linear-gradient-29" x1="160.06" y1="406.47" x2="281.56" y2="406.47" gradientTransform="matrix(-0.95, -0.31, -0.31, 0.95, 676.65, 98.47)" xlink:href="#linear-gradient-16"/><linearGradient id="linear-gradient-30" x1="271.79" y1="368.82" x2="298.99" y2="368.82" gradientTransform="matrix(-0.95, -0.31, -0.31, 0.95, 676.65, 98.47)" xlink:href="#linear-gradient-16"/><linearGradient id="linear-gradient-31" x1="546.55" y1="316.11" x2="554.34" y2="316.11" gradientTransform="matrix(-0.95, -0.31, -0.31, 0.95, 676.65, 98.47)" xlink:href="#linear-gradient-16"/><linearGradient id="linear-gradient-32" x1="414.85" y1="265.52" x2="426.61" y2="265.52" gradientTransform="matrix(1, 0, 0, 1, 0, 0)" xlink:href="#linear-gradient-16"/><linearGradient id="linear-gradient-33" x1="413.55" y1="274.75" x2="425.74" y2="274.75" gradientTransform="matrix(1, 0, 0, 1, 0, 0)" xlink:href="#linear-gradient-16"/><linearGradient id="linear-gradient-34" x1="411.74" y1="285.28" x2="423.65" y2="285.28" gradientTransform="matrix(1, 0, 0, 1, 0, 0)" xlink:href="#linear-gradient-16"/><linearGradient id="linear-gradient-35" x1="409.69" y1="294.55" x2="418.15" y2="294.55" gradientTransform="matrix(1, 0, 0, 1, 0, 0)" xlink:href="#linear-gradient-16"/><linearGradient id="linear-gradient-36" x1="406.88" y1="303.94" x2="415.31" y2="303.94" gradientTransform="matrix(1, 0, 0, 1, 0, 0)" xlink:href="#linear-gradient-16"/><linearGradient id="linear-gradient-37" x1="402.71" y1="312.83" x2="415.02" y2="312.83" gradientTransform="matrix(1, 0, 0, 1, 0, 0)" xlink:href="#linear-gradient-16"/><linearGradient id="linear-gradient-38" x1="398.57" y1="321.86" x2="408.9" y2="321.86" gradientTransform="matrix(1, 0, 0, 1, 0, 0)" xlink:href="#linear-gradient-16"/><linearGradient id="linear-gradient-39" x1="395.13" y1="331.12" x2="407.64" y2="331.12" gradientTransform="matrix(1, 0, 0, 1, 0, 0)" xlink:href="#linear-gradient-16"/><linearGradient id="linear-gradient-40" x1="388.5" y1="339.27" x2="401.52" y2="339.27" gradientTransform="matrix(1, 0, 0, 1, 0, 0)" xlink:href="#linear-gradient-16"/><linearGradient id="linear-gradient-41" x1="384.6" y1="348.68" x2="395.84" y2="348.68" gradientTransform="matrix(1, 0, 0, 1, 0, 0)" xlink:href="#linear-gradient-16"/><linearGradient id="linear-gradient-42" x1="106.11" y1="350.7" x2="117.38" y2="350.7" gradientTransform="matrix(1, 0, 0, 1, 0, 0)" xlink:href="#linear-gradient-16"/><linearGradient id="linear-gradient-43" x1="100.49" y1="342.25" x2="112.64" y2="342.25" gradientTransform="matrix(1, 0, 0, 1, 0, 0)" xlink:href="#linear-gradient-16"/><linearGradient id="linear-gradient-44" x1="95.74" y1="334.24" x2="106.05" y2="334.24" gradientTransform="matrix(1, 0, 0, 1, 0, 0)" xlink:href="#linear-gradient-16"/><linearGradient id="linear-gradient-45" x1="93.34" y1="325.11" x2="101.88" y2="325.11" gradientTransform="matrix(1, 0, 0, 1, 0, 0)" xlink:href="#linear-gradient-16"/><linearGradient id="linear-gradient-46" x1="89.32" y1="316.21" x2="97.77" y2="316.21" gradientTransform="matrix(1, 0, 0, 1, 0, 0)" xlink:href="#linear-gradient-16"/><linearGradient id="linear-gradient-47" x1="82.45" y1="306.96" x2="94.89" y2="306.96" gradientTransform="matrix(1, 0, 0, 1, 0, 0)" xlink:href="#linear-gradient-16"/><linearGradient id="linear-gradient-48" x1="82.52" y1="297.6" x2="91.77" y2="297.6" gradientTransform="matrix(1, 0, 0, 1, 0, 0)" xlink:href="#linear-gradient-16"/><linearGradient id="linear-gradient-49" x1="77.25" y1="288.9" x2="89.26" y2="288.9" gradientTransform="matrix(1, 0, 0, 1, 0, 0)" xlink:href="#linear-gradient-16"/><linearGradient id="linear-gradient-50" x1="75.08" y1="277.77" x2="87.23" y2="277.77" gradientTransform="matrix(1, 0, 0, 1, 0, 0)" xlink:href="#linear-gradient-16"/><linearGradient id="linear-gradient-51" x1="73.74" y1="268.85" x2="85.39" y2="268.85" gradientTransform="matrix(1, 0, 0, 1, 0, 0)" xlink:href="#linear-gradient-16"/><linearGradient id="linear-gradient-52" x1="233.1" y1="75.29" x2="249.97" y2="75.29" gradientTransform="matrix(1, 0, 0, -1, 0, 502)" gradientUnits="userSpaceOnUse"><stop offset="0" stop-color="#ffde69"/><stop offset="0.12" stop-color="#f8c855"/><stop offset="0.5" stop-color="#f5c552"/><stop offset="0.94" stop-color="#faca57"/><stop offset="1" stop-color="#ffdf6a"/></linearGradient></defs><title>Gold-POAP</title><g class="cls-1"><g id="Layer_1_copy_2" data-name="Layer 1 copy 2"><circle class="cls-2" cx="250" cy="250" r="250"/><circle class="cls-3" cx="250" cy="250" r="234.25"/><circle class="cls-4" cx="250" cy="250" r="231.12"/><circle class="cls-5" cx="250" cy="250" r="219.53"/><circle class="cls-6" cx="250" cy="250" r="202.27"/><circle class="cls-7" cx="250" cy="250" r="202.27"/><path class="cls-8" d="M251.47,163H250v-5.74c0-1.57-1.25-2.38-2.69-3.32s-3.37-2.2-3.37-4.59,1.79-3.56,3.37-4.59S250,143,250,141.4s-1.25-2.38-2.69-3.33-3.37-2.19-3.37-4.58,1.79-3.56,3.37-4.59,2.69-1.76,2.69-3.33-1.25-2.4-2.69-3.35-3.37-2.2-3.37-4.6,1.79-3.56,3.37-4.59,2.69-1.77,2.69-3.34v-6h1.5v6c0,2.39-1.79,3.56-3.37,4.59s-2.69,1.77-2.69,3.34,1.25,2.4,2.69,3.35,3.37,2.2,3.37,4.6-1.79,3.55-3.37,4.59-2.69,1.76-2.69,3.33,1.25,2.39,2.69,3.33,3.37,2.2,3.37,4.58S249.68,145,248.1,146s-2.69,1.76-2.69,3.33,1.25,2.39,2.69,3.33,3.37,2.2,3.37,4.58Z"/><path class="cls-8" d="M235.25,178.2c0-10.86,6.6-19.68,14.75-19.68-11.3,0-20.46,8.82-20.46,19.68s9.16,19.7,20.46,19.7C241.85,197.9,235.25,189.08,235.25,178.2Z"/><path class="cls-8" d="M250,158.52c8.15,0,14.75,8.82,14.75,19.68s-6.6,19.7-14.75,19.7c11.3,0,20.46-8.82,20.46-19.7S261.3,158.52,250,158.52Z"/><path class="cls-8" d="M264.75,178.2c0-10.86-6.6-19.68-14.75-19.68s-14.75,8.82-14.75,19.68,6.6,19.7,14.75,19.7S264.75,189.08,264.75,178.2Z"/><path class="cls-8" d="M241.51,178.2c0-10.43,3.75-18.95,8.49-19.62-.24,0-.47-.06-.72-.06-6,0-10.89,8.82-10.89,19.68s4.88,19.7,10.89,19.7a5.66,5.66,0,0,0,.72-.07C245.26,197.16,241.51,188.64,241.51,178.2Z"/><circle class="cls-8" cx="250.72" cy="104.47" r="8.47" transform="translate(145.77 354.99) rotate(-89.89)"/><path class="cls-8" d="M250.51,101.7a2.78,2.78,0,1,1-2.77-2.77A2.77,2.77,0,0,1,250.51,101.7Z"/><rect class="cls-8" x="173.78" y="172.73" width="152.43" height="119.62"/><polygon class="cls-8" points="173.78 247.15 151.76 241.28 151.76 214.84 173.78 208.97 173.78 247.15"/><polygon class="cls-8" points="326.22 247.15 348.24 241.28 348.24 214.84 326.22 208.97 326.22 247.15"/><rect class="cls-8" x="196.29" y="257.34" width="107.42" height="19.62"/><rect class="cls-8" x="200.6" y="259.68" width="9.76" height="14.39"/><rect class="cls-8" x="215.44" y="259.68" width="9.76" height="14.39"/><rect class="cls-8" x="230.28" y="259.68" width="9.76" height="14.39"/><rect class="cls-8" x="245.12" y="259.68" width="9.76" height="14.39"/><rect class="cls-8" x="259.96" y="259.68" width="9.76" height="14.39"/><rect class="cls-8" x="274.8" y="259.68" width="9.76" height="14.39"/><rect class="cls-8" x="289.64" y="259.68" width="9.76" height="14.39"/><polygon class="cls-8" points="250 219.31 250 244.44 237.01 237.67 240.04 228.06 250 219.31"/><g class="cls-9"><polygon class="cls-8" points="250 219.31 250 244.44 262.99 237.67 259.96 228.06 250 219.31"/></g><path class="cls-8" d="M212.88,233.51a18.25,18.25,0,1,1,18.25-18.25A18.27,18.27,0,0,1,212.88,233.51Zm0-30.32A12.08,12.08,0,1,0,225,215.26,12.09,12.09,0,0,0,212.88,203.19Z"/><path class="cls-8" d="M212.88,227.34a12.07,12.07,0,0,1-12-11.32,15.49,15.49,0,0,1-3.05-2.2,13.59,13.59,0,0,0-.08,1.44,15.17,15.17,0,1,0,30.33,0c0-.38,0-.77,0-1.14a16.16,16.16,0,0,1-3.08,2.1A12.09,12.09,0,0,1,212.88,227.34Z"/><g class="cls-10"><path class="cls-8" d="M212.88,200.1a15.17,15.17,0,0,0-15.09,13.72,15.49,15.49,0,0,0,3.05,2.2c0-.25,0-.5,0-.76a12.08,12.08,0,0,1,24.16,0c0,.32,0,.64-.05,1a16.16,16.16,0,0,0,3.08-2.1A15.16,15.16,0,0,0,212.88,200.1Z"/></g><path class="cls-8" d="M225,215.26a12.13,12.13,0,1,1-12.13-12.13A12.13,12.13,0,0,1,225,215.26Z"/><path class="cls-8" d="M221.18,215.26a8.3,8.3,0,1,1-8.3-8.3A8.3,8.3,0,0,1,221.18,215.26Z"/><path class="cls-8" d="M287.12,233.51a18.25,18.25,0,1,1,18.25-18.25A18.27,18.27,0,0,1,287.12,233.51Zm0-30.32a12.08,12.08,0,1,0,12.08,12.07A12.09,12.09,0,0,0,287.12,203.19Z"/><path class="cls-8" d="M287.12,227.34A12.09,12.09,0,0,1,275.07,216a15.79,15.79,0,0,1-3.05-2.2c0,.47-.07,1-.07,1.44a15.17,15.17,0,1,0,30.33,0c0-.38,0-.77,0-1.14a16.48,16.48,0,0,1-3.08,2.1A12.09,12.09,0,0,1,287.12,227.34Z"/><g class="cls-10"><path class="cls-8" d="M287.12,200.1A15.17,15.17,0,0,0,272,213.82a15.79,15.79,0,0,0,3.05,2.2c0-.25,0-.5,0-.76a12.08,12.08,0,0,1,24.16,0c0,.32,0,.64-.05,1a16.48,16.48,0,0,0,3.08-2.1A15.16,15.16,0,0,0,287.12,200.1Z"/></g><path class="cls-8" d="M299.25,215.26a12.13,12.13,0,1,1-12.13-12.13A12.13,12.13,0,0,1,299.25,215.26Z"/><path class="cls-8" d="M295.42,215.26a8.31,8.31,0,1,1-8.3-8.3A8.3,8.3,0,0,1,295.42,215.26Z"/><rect class="cls-8" x="200.6" y="292.36" width="98.8" height="15.73"/><path class="cls-8" d="M162.77,445.7V306.39H337.23q-.36,71.81-.73,143.61a324.47,324.47,0,0,1-173.73-4.3Z"/><path class="cls-8" d="M162.77,306.22q87.22-.29,174.46,0v.34L315.42,308l-21.81.8c-14.53.48-29.07.43-43.61.68-14.54-.23-29.08-.21-43.61-.67l-21.81-.8-21.81-1.41Z"/><path class="cls-8" d="M321.19,428.67"/><rect class="cls-8" x="119.02" y="319.06" width="6.77" height="18.31" rx="1.69"/><rect class="cls-8" x="125.8" y="341.44" width="33.45" height="52.65"/><polyline class="cls-8" points="126.14 431.21 126.14 399.74 159.59 399.74 159.59 431.21"/><rect class="cls-8" x="122.4" y="314.98" width="40.37" height="26.46"/><rect class="cls-8" x="122.69" y="388.44" width="40.37" height="11.29"/><rect class="cls-8" x="374.21" y="319.06" width="6.77" height="18.31" rx="1.69"/><rect class="cls-8" x="340.75" y="341.44" width="33.45" height="52.65"/><polyline class="cls-8" points="373.86 431.21 373.86 399.74 340.4 399.74 340.4 431.21"/><rect class="cls-8" x="337.23" y="314.98" width="40.37" height="26.46"/><rect class="cls-8" x="336.95" y="388.44" width="40.37" height="11.29"/><path class="cls-11" d="M250,30.47C128.76,30.47,30.47,128.76,30.47,250S128.76,469.53,250,469.53,469.53,371.24,469.53,250,371.24,30.47,250,30.47Zm0,421.8C138.29,452.27,47.73,361.71,47.73,250S138.29,47.73,250,47.73,452.27,138.29,452.27,250,361.71,452.27,250,452.27Z"/><circle class="cls-12" cx="250" cy="230" r="89.02"/><circle class="cls-13" cx="250" cy="230" r="106.5"/><line class="cls-14" x1="210.34" y1="230" x2="111.97" y2="230"/><line class="cls-15" x1="386.34" y1="230" x2="287.97" y2="230"/><line class="cls-16" x1="250" y1="269.81" x2="250" y2="368.19"/><line class="cls-17" x1="250" y1="93.81" x2="250" y2="192.19"/><path class="cls-18" d="M218.45,388.07c-6.78,3.69-13.5,3-19.26-2l1.22-1.39c6.11,5.38,13.5,5.15,20.79-.62,9.17-7.27-2.14-24.16-2.26-24.33l1.53-1c.51.76,12.38,18.5,1.87,26.82A27.46,27.46,0,0,1,218.45,388.07Z"/><path class="cls-19" d="M215.3,372.18a34.51,34.51,0,0,0-.24,9,.57.57,0,0,1-1,.4c-1.33-1.79-2.93-4.67-2.45-7.71C212.38,368.87,215.3,372.18,215.3,372.18Z"/><rect class="cls-20" x="221.86" y="342.22" width="1" height="7.45" rx="0.28" transform="translate(-138.35 148.44) rotate(-28.57)"/><path class="cls-21" d="M204.65,378.78l55.21-30.07,2.34-1.27c3.18-1.73,4.67-5.14,3.32-7.62h0L463.53,232a2,2,0,0,0,1.12-2.57h0a2,2,0,0,0-2.77-.46l-2.55,1.39-.43-.79,4.67-2.54a4.16,4.16,0,0,0,.26-4.86c-1.59-2.91-4.89-2-4.89-2l-238.68,130s-8.42,6.43-9.65,7.81-9.87,17.52-9.87,17.52Z"/><path class="cls-22" d="M212.54,363.16a3.83,3.83,0,1,0-1.53,5.2A3.83,3.83,0,0,0,212.54,363.16Z"/><path class="cls-23" d="M464.84,224.75a4.61,4.61,0,0,0-.6-2.8c-1.59-2.91-5-1.94-5-1.94L215.75,352.61a5.3,5.3,0,0,0,.62,2.12,6.11,6.11,0,0,0,4.33,2.95Z"/><rect x="205.22" y="357.68" width="23.19" height="6.32" rx="1.78" transform="translate(-146.16 147.61) rotate(-28.57)"/><path class="cls-24" d="M228.64,354.4a5.49,5.49,0,1,0-2.2,7.44A5.5,5.5,0,0,0,228.64,354.4Z"/><path class="cls-25" d="M251.51,348.54l-50.31,27.4,3.09,3,43-23.4,1.82-1A5.11,5.11,0,0,0,251.51,348.54Z"/><path class="cls-26" d="M207.3,359.77s-16.06,19.71-19.05,22.87l-.29.26a27.28,27.28,0,0,0-8.39,11.35c-2.39,6.22-7.54,12.67-18.46,14.33a46.59,46.59,0,0,1-16.31-.14C128,418,111.74,427.27,106.93,430.1c-10.72,6.31,18.68,36,23.87,36s62.68-62.43,62.68-62.43,3.34-18.56,10.81-24.75C204.29,379,210.09,364.26,207.3,359.77Z"/><path class="cls-27" d="M218.5,353.58a11.21,11.21,0,0,0-10.68-3.17l-.07,0c-1.68.41-2.7-.49-3.42-2.05a.74.74,0,0,0-1.4.15c-.47,2.14-.76,5.14.92,6.14a30.79,30.79,0,0,0,4.79,2.38l-6.54,15.08a2.32,2.32,0,0,0,.29,2.87h0a2.31,2.31,0,0,0,3.25.07c4.94-4.63,20.8-13.23,20.8-13.23Z"/><polygon class="cls-28" points="450.49 225.88 444.08 229.37 442.44 226.37 446.34 224.25 450.49 225.88"/><path class="cls-29" d="M283,388.07c6.78,3.69,13.49,3,19.25-2l-1.22-1.39c-6.11,5.38-13.5,5.15-20.78-.62-9.18-7.27,2.13-24.16,2.25-24.33l-1.53-1c-.51.76-12.38,18.5-1.87,26.82A27.53,27.53,0,0,0,283,388.07Z"/><path class="cls-30" d="M286.16,372.18a34.51,34.51,0,0,1,.24,9,.57.57,0,0,0,1,.4c1.33-1.79,2.93-4.67,2.45-7.71C289.08,368.87,286.16,372.18,286.16,372.18Z"/><rect class="cls-31" x="278.6" y="342.22" width="1" height="7.45" rx="0.28" transform="translate(358.8 783.24) rotate(-151.43)"/><path class="cls-32" d="M296.81,378.78,241.6,348.71l-2.34-1.27c-3.18-1.73-4.67-5.14-3.32-7.62h0L37.94,232a2,2,0,0,1-1.13-2.57h0a2,2,0,0,1,2.78-.46l2.55,1.39.43-.79L37.89,227a4.15,4.15,0,0,1-.25-4.86c1.58-2.91,4.88-2,4.88-2l238.68,130s8.43,6.43,9.65,7.81,9.87,17.52,9.87,17.52Z"/><path class="cls-22" d="M288.92,363.16a3.83,3.83,0,1,1,1.53,5.2A3.83,3.83,0,0,1,288.92,363.16Z"/><path class="cls-33" d="M36.63,224.75a4.59,4.59,0,0,1,.59-2.8c1.59-2.91,5-1.94,5-1.94l243.53,132.6a5.48,5.48,0,0,1-.63,2.12,6.11,6.11,0,0,1-4.33,2.95Z"/><rect x="273.05" y="357.68" width="23.19" height="6.32" rx="1.78" transform="translate(362.09 813.86) rotate(-151.43)"/><path class="cls-34" d="M272.83,354.4a5.49,5.49,0,1,1,2.19,7.44A5.49,5.49,0,0,1,272.83,354.4Z"/><path class="cls-35" d="M250,348.54l50.31,27.4-3.09,3-43-23.4-1.82-1A5.11,5.11,0,0,1,250,348.54Z"/><path class="cls-36" d="M294.17,359.77s16.05,19.71,19,22.87l.29.26a27.28,27.28,0,0,1,8.39,11.35c2.4,6.22,7.54,12.67,18.46,14.33a46.58,46.58,0,0,0,16.31-.14c16.76,9.6,33.06,18.83,37.88,21.66,10.71,6.31-18.68,36-23.87,36S308,403.72,308,403.72s-3.33-18.56-10.81-24.75C297.17,379,291.37,364.26,294.17,359.77Z"/><path class="cls-37" d="M283,353.58a11.22,11.22,0,0,1,10.68-3.17l.07,0c1.68.41,2.7-.49,3.42-2.05a.75.75,0,0,1,1.41.15c.46,2.14.76,5.14-.93,6.14a30.79,30.79,0,0,1-4.79,2.38l6.54,15.08a2.32,2.32,0,0,1-.29,2.87h0a2.31,2.31,0,0,1-3.25.07c-4.93-4.63-20.8-13.23-20.8-13.23Z"/><polygon class="cls-38" points="50.98 225.88 57.38 229.37 59.02 226.37 55.13 224.25 50.98 225.88"/><text class="cls-39" transform="matrix(-0.09, 1, -1, -0.09, 415.65, 260.19)">G</text><text class="cls-39" transform="matrix(-0.15, 0.99, -0.99, -0.15, 414.79, 269.77)">i</text><text class="cls-39" transform="translate(413.38 279.31) rotate(101.82)">t</text><text class="cls-39" transform="translate(411.41 288.73) rotate(105.17)">c</text><text class="cls-39" transform="translate(408.89 298.04) rotate(108.52)">o</text><text class="cls-39" transform="translate(405.84 307.15) rotate(111.87)">i</text><text class="cls-39" transform="matrix(-0.43, 0.9, -0.9, -0.43, 402.25, 316.11)">n</text><text class="cls-39" transform="matrix(-0.48, 0.88, -0.88, -0.48, 398.15, 324.83)">D</text><text class="cls-39" transform="matrix(-0.53, 0.85, -0.85, -0.53, 393.55, 333.29)">A</text><text class="cls-39" transform="translate(388.47 341.47) rotate(125.17)">O</text><path class="cls-40" d="M420.92,264.85l-.43,4.78-5.64-.51.17-1.91,1.24.11,0-.29a2,2,0,0,1-1-.83,2.58,2.58,0,0,1-.27-1.66,3.55,3.55,0,0,1,.41-1.41,3.1,3.1,0,0,1,1-1.08,4,4,0,0,1,1.47-.66,6,6,0,0,1,2-.11l2.61.24a5.36,5.36,0,0,1,1.9.48,4.21,4.21,0,0,1,1.33,1,3.54,3.54,0,0,1,.75,1.39,4.84,4.84,0,0,1,.14,1.72,4.57,4.57,0,0,1-.46,1.68,3.81,3.81,0,0,1-1,1.19,3.56,3.56,0,0,1-1.36.68,4.53,4.53,0,0,1-1.61.13l-.19,0,.18-2.1.2,0a2.06,2.06,0,0,0,1.56-.38,2,2,0,0,0,.65-1.42,1.91,1.91,0,0,0-.46-1.51,2.91,2.91,0,0,0-2-.76l-2.36-.22c-1.72-.15-2.64.47-2.77,1.87a1.94,1.94,0,0,0,.38,1.48,1.86,1.86,0,0,0,1.3.6l.24-2.67Z"/><path class="cls-41" d="M416.49,271.43l-.4,2.66,4.05.6.37-2.47,1.9.29-.67,4.46-5.95-.89-.34,2.28-1.9-.28,1-6.93Zm7.51,6.38a1.61,1.61,0,0,1-.58-.21,1.64,1.64,0,0,1-.43-.4,1.51,1.51,0,0,1-.24-.53,1.46,1.46,0,0,1,0-.59,1.55,1.55,0,0,1,.2-.57,1.79,1.79,0,0,1,.39-.43,1.39,1.39,0,0,1,.52-.25,1.6,1.6,0,0,1,.62,0,1.4,1.4,0,0,1,.57.21,1.34,1.34,0,0,1,.43.39,1.64,1.64,0,0,1,.24.52,1.25,1.25,0,0,1,0,.61,1.45,1.45,0,0,1-.2.56,1.79,1.79,0,0,1-.39.43,1.59,1.59,0,0,1-.52.26A1.56,1.56,0,0,1,424,277.81Z"/><path class="cls-42" d="M420.93,281.94l-.48,2.3,3.2.67-.42,2-3.19-.67-.59,2.81-1.88-.4.59-2.8-3.54-.74c-.31-.07-.5,0-.56.32l-.44,2.1-1.88-.39.69-3.29a1.2,1.2,0,0,1,.53-.8,1.23,1.23,0,0,1,1-.15l4.66,1,.48-2.31Z"/><path class="cls-43" d="M411.87,298.17a3.83,3.83,0,0,1-1.86-1.84,4,4,0,0,1-.12-2.84,4.64,4.64,0,0,1,.69-1.51,3.73,3.73,0,0,1,1.1-1.07,3.55,3.55,0,0,1,1.45-.52,4.4,4.4,0,0,1,1.74.14l.18.05a4.52,4.52,0,0,1,1.59.76,3.92,3.92,0,0,1,1,1.2,4,4,0,0,1,.46,1.5,4.6,4.6,0,0,1-.15,1.64,4.12,4.12,0,0,1-1.54,2.38,3.82,3.82,0,0,1-2.53.66l0-2.05a2,2,0,0,0,1.33-.26,2.25,2.25,0,0,0,.93-2.09,1.9,1.9,0,0,0-.26-.77,2.28,2.28,0,0,0-.58-.63,2.5,2.5,0,0,0-.87-.41l-.1,0a2.39,2.39,0,0,0-.94-.08,1.85,1.85,0,0,0-.78.26,2,2,0,0,0-.57.54,2.33,2.33,0,0,0-.34.75,2,2,0,0,0,.08,1.49,2.21,2.21,0,0,0,1,.94Z"/><path class="cls-44" d="M409.69,307.83a4.4,4.4,0,0,1-1.55-.88,3.79,3.79,0,0,1-.93-1.27,4.25,4.25,0,0,1-.33-1.5,4.72,4.72,0,0,1,.24-1.57,4.37,4.37,0,0,1,.76-1.39,3.81,3.81,0,0,1,1.16-1,3.7,3.7,0,0,1,1.51-.46,4.34,4.34,0,0,1,1.77.24l.18.06a4.05,4.05,0,0,1,1.54.87,3.79,3.79,0,0,1,.93,1.27,4.1,4.1,0,0,1,.34,1.51,4.62,4.62,0,0,1-.24,1.56,4.5,4.5,0,0,1-.75,1.4,3.88,3.88,0,0,1-1.18,1,3.7,3.7,0,0,1-1.51.46,4.36,4.36,0,0,1-1.75-.23Zm-.75-4.61a2.33,2.33,0,0,0-.12.82,2,2,0,0,0,.18.77,1.86,1.86,0,0,0,.49.64,2.12,2.12,0,0,0,.78.44l.31.11a2.36,2.36,0,0,0,.89.12,2.2,2.2,0,0,0,.78-.22,2.27,2.27,0,0,0,.61-.51,2.22,2.22,0,0,0,.39-.73,2.3,2.3,0,0,0,.12-.82,2,2,0,0,0-.18-.77,2,2,0,0,0-.48-.64,2.16,2.16,0,0,0-.79-.44l-.3-.1a2.08,2.08,0,0,0-.9-.12,1.81,1.81,0,0,0-.77.22,1.84,1.84,0,0,0-.61.5A2.35,2.35,0,0,0,408.94,303.22Z"/><path class="cls-45" d="M407.11,309.16l-1,2.49,3.81,1.53.93-2.32,1.78.72-1.68,4.19-5.59-2.25-.85,2.14-1.79-.71,2.61-6.51Zm5.83,7.94a1.65,1.65,0,0,1-.52-.33,1.54,1.54,0,0,1-.32-.49,1.81,1.81,0,0,1-.12-.57,1.62,1.62,0,0,1,.11-.58,1.5,1.5,0,0,1,.33-.51,1.58,1.58,0,0,1,.48-.33,1.32,1.32,0,0,1,.57-.12,1.42,1.42,0,0,1,.6.11,1.52,1.52,0,0,1,.83.82,1.75,1.75,0,0,1,.12.56,1.42,1.42,0,0,1-.11.6,1.25,1.25,0,0,1-.33.49,1.45,1.45,0,0,1-.48.34,1.31,1.31,0,0,1-.56.12A1.36,1.36,0,0,1,412.94,317.1Z"/><path class="cls-46" d="M400.86,319.06l.86-1.82,7.18,3.38-.86,1.82-1.07-.5-.12.26a2.08,2.08,0,0,1,.56,1.24,2.68,2.68,0,0,1-.27,1.44,2.91,2.91,0,0,1-.63.9,2.36,2.36,0,0,1-.89.56,2.64,2.64,0,0,1-1.14.13,4.14,4.14,0,0,1-1.36-.4l-4.55-2.15.86-1.82,4.08,1.92a2,2,0,0,0,1.38.2,1.44,1.44,0,0,0,.95-.85,1.56,1.56,0,0,0,0-1.47,2.69,2.69,0,0,0-1.26-1.08Z"/><path class="cls-47" d="M407.64,330.83l-1.95,3.57a4.31,4.31,0,0,1-2.32,2.25,4,4,0,0,1-3.12-.55l-2.87-1.56a4,4,0,0,1-2.15-2.32,4.28,4.28,0,0,1,.63-3.18l1.94-3.57,1.78,1-.5.92,6.28,3.42.51-.93Zm-10-.82a1.91,1.91,0,0,0-.28,1.6,2.44,2.44,0,0,0,1.21,1.16l2.7,1.47a2.11,2.11,0,0,0,1.49.31,2,2,0,0,0,1.17-1.12l.43-.78-6.3-3.43Z"/><path class="cls-48" d="M392,340.33l2-3.23-1.75-1.73,1.16-1.88,8.1,8.19-2.09,3.37L388.5,341.4l1.17-1.87Zm3.48-1.79L394,341l5.55,1.93.15-.25Z"/><path class="cls-49" d="M393.62,346a4.81,4.81,0,0,1,2.13,2.84,3.89,3.89,0,0,1-.76,3.17,4,4,0,0,1-2.73,1.79,4.87,4.87,0,0,1-3.39-1l-2-1.44a4.82,4.82,0,0,1-2.16-2.86,4.5,4.5,0,0,1,3.5-4.95,4.78,4.78,0,0,1,3.41,1.06Zm-6.59.41a2.24,2.24,0,0,0-.4.89,1.59,1.59,0,0,0,.07.81,2,2,0,0,0,.46.73,4.85,4.85,0,0,0,.78.67l2.25,1.59a4.71,4.71,0,0,0,.87.48,2.52,2.52,0,0,0,.86.17,1.76,1.76,0,0,0,.8-.2,2,2,0,0,0,.7-.65,1.93,1.93,0,0,0,.37-.87,1.73,1.73,0,0,0-.08-.82,2.27,2.27,0,0,0-.45-.75,4,4,0,0,0-.75-.66l-2.25-1.59a5.45,5.45,0,0,0-.89-.51,2.2,2.2,0,0,0-.85-.18,1.58,1.58,0,0,0-.78.21A2.25,2.25,0,0,0,387,346.45Z"/><path class="cls-50" d="M112.06,352l-2.84-3.87,4.57-3.35,1.14,1.54-1,.74.17.24a2,2,0,0,1,1.28,0,2.63,2.63,0,0,1,1.31,1.06,3.75,3.75,0,0,1,.62,1.33,3.23,3.23,0,0,1,0,1.45,4.19,4.19,0,0,1-.67,1.47,6.21,6.21,0,0,1-1.41,1.39l-2.12,1.55a5.39,5.39,0,0,1-1.73.89,4.16,4.16,0,0,1-1.66.15,3.7,3.7,0,0,1-1.48-.55,4.69,4.69,0,0,1-1.24-1.2,4.37,4.37,0,0,1-.77-1.56,4,4,0,0,1-.06-1.54,3.75,3.75,0,0,1,.57-1.41,4.81,4.81,0,0,1,1.13-1.17L108,349l1.25,1.7-.15.12a2.1,2.1,0,0,0-.93,1.32,2,2,0,0,0,.45,1.49,2,2,0,0,0,1.35.83,3,3,0,0,0,2-.75l1.91-1.41q2.08-1.53.84-3.23a1.92,1.92,0,0,0-1.25-.86,1.84,1.84,0,0,0-1.38.41l1.59,2.17Z"/><path class="cls-51" d="M101.18,344.34a1.54,1.54,0,0,1,.57-.22,1.41,1.41,0,0,1,.58,0,1.58,1.58,0,0,1,.53.24,1.46,1.46,0,0,1,.64,1,1.88,1.88,0,0,1,0,.58,1.6,1.6,0,0,1-.23.54,1.36,1.36,0,0,1-.44.42,1.5,1.5,0,0,1-1.15.22,1.9,1.9,0,0,1-.53-.23,1.57,1.57,0,0,1-.42-.43,1.52,1.52,0,0,1-.21-1.14,1.4,1.4,0,0,1,.22-.54A1.51,1.51,0,0,1,101.18,344.34Zm9.85-.19-1.46-2.25-3.44,2.23,1.36,2.09-1.61,1-2.46-3.79,5-3.27-1.25-1.94,1.61-1,3.81,5.88Z"/><path class="cls-52" d="M100.74,339.22l-1.16-2-2.84,1.61-1-1.75,2.84-1.62-1.41-2.49,1.66-.95,1.42,2.49,3.14-1.78c.28-.16.35-.37.21-.62l-1.06-1.86,1.67-.95,1.66,2.92a1.19,1.19,0,0,1,.13.95,1.23,1.23,0,0,1-.61.74l-4.14,2.36,1.16,2Z"/><path class="cls-53" d="M96.79,321.05a3.88,3.88,0,0,1,2.61.15,4,4,0,0,1,2,2.05,4.7,4.7,0,0,1,.48,1.59,3.73,3.73,0,0,1-.11,1.53,3.48,3.48,0,0,1-.75,1.35,4.3,4.3,0,0,1-1.39,1l-.17.09a4.65,4.65,0,0,1-1.69.48,3.88,3.88,0,0,1-2.91-1,4.52,4.52,0,0,1-1-1.33,4,4,0,0,1-.42-2.8A3.72,3.72,0,0,1,94.9,322l1.33,1.55a2.07,2.07,0,0,0-.82,1.08,2,2,0,0,0,.18,1.52,2.09,2.09,0,0,0,.51.66,1.88,1.88,0,0,0,.7.4,2,2,0,0,0,.85.09,2.44,2.44,0,0,0,.93-.27l.08,0a2.57,2.57,0,0,0,.77-.57,2,2,0,0,0,.41-.71,1.86,1.86,0,0,0,.06-.78,2.55,2.55,0,0,0-.23-.79,2,2,0,0,0-1-1.07,2.23,2.23,0,0,0-1.4,0Z"/><path class="cls-54" d="M92,312.38a4.25,4.25,0,0,1,1.74-.38,3.9,3.9,0,0,1,1.54.34,4.23,4.23,0,0,1,1.24.91,4.54,4.54,0,0,1,.86,1.33,4.42,4.42,0,0,1,.35,1.55,3.92,3.92,0,0,1-.21,1.52,3.76,3.76,0,0,1-.82,1.34,4.41,4.41,0,0,1-1.49,1l-.17.07a4.15,4.15,0,0,1-1.73.37,3.9,3.9,0,0,1-2.8-1.24,4.51,4.51,0,0,1-.85-1.33,4.22,4.22,0,0,1-.36-1.54,4,4,0,0,1,.22-1.53,3.85,3.85,0,0,1,.83-1.34,4.14,4.14,0,0,1,1.47-1Zm3.61,2.95a2.21,2.21,0,0,0-.45-.7,2,2,0,0,0-.65-.45,1.86,1.86,0,0,0-.79-.16,2.26,2.26,0,0,0-.88.19l-.29.12a2.34,2.34,0,0,0-.76.5,2,2,0,0,0-.55,1.46,2.32,2.32,0,0,0,.18.81,2.63,2.63,0,0,0,.45.7,2.05,2.05,0,0,0,.65.45,1.86,1.86,0,0,0,.79.16,2.06,2.06,0,0,0,.88-.19l.3-.12a2.4,2.4,0,0,0,.75-.5,1.91,1.91,0,0,0,.43-.68,1.73,1.73,0,0,0,.12-.78A2.32,2.32,0,0,0,95.64,315.33Z"/><path class="cls-55" d="M83.46,307.57a1.57,1.57,0,0,1,.6-.09,1.29,1.29,0,0,1,.56.15,1.45,1.45,0,0,1,.47.35,1.49,1.49,0,0,1,.31.51,1.39,1.39,0,0,1,.08.6,1.54,1.54,0,0,1-.14.56,1.52,1.52,0,0,1-.34.47,1.44,1.44,0,0,1-.52.31,1.64,1.64,0,0,1-.61.09,1.33,1.33,0,0,1-.56-.15,1.53,1.53,0,0,1-.46-.34,1.62,1.62,0,0,1-.32-.52,1.68,1.68,0,0,1-.08-.59,1.59,1.59,0,0,1,.14-.57,1.52,1.52,0,0,1,.34-.47A1.65,1.65,0,0,1,83.46,307.57Zm9.62,2.09-.9-2.53-3.86,1.37.84,2.36-1.81.64-1.51-4.25,5.67-2-.78-2.17,1.81-.64,2.35,6.6Z"/><path class="cls-56" d="M91.21,298.11l.56,1.93-7.62,2.22-.56-1.93,1.14-.34-.08-.27a2.14,2.14,0,0,1-1.25-.56,2.66,2.66,0,0,1-.75-1.26,3.16,3.16,0,0,1-.13-1.09,2.57,2.57,0,0,1,.3-1,2.68,2.68,0,0,1,.77-.85,4.07,4.07,0,0,1,1.29-.6l4.83-1.4.56,1.93-4.33,1.26a2.07,2.07,0,0,0-1.17.77,1.43,1.43,0,0,0-.14,1.26,1.54,1.54,0,0,0,1,1.12,2.66,2.66,0,0,0,1.67,0Z"/><path class="cls-57" d="M78.34,293.77l-.9-4a4.29,4.29,0,0,1,.25-3.22,4,4,0,0,1,2.7-1.66l3.18-.72a4,4,0,0,1,3.15.31,4.3,4.3,0,0,1,1.63,2.79l.91,4-2,.46-.24-1-7,1.59.24,1Zm8-6a2,2,0,0,0-.85-1.39,2.51,2.51,0,0,0-1.68-.06l-3,.68a2.14,2.14,0,0,0-1.32.76,2,2,0,0,0-.14,1.61l.2.88,7-1.6Z"/><path class="cls-58" d="M83.77,276.3l.64,3.75,2.45.14.37,2.18-11.49-.78-.66-3.91,10.6-4.5.37,2.18Zm-1.43,3.64-.48-2.85-5.43,2.23,0,.28Z"/><path class="cls-59" d="M78.78,273.1a4.91,4.91,0,0,1-3.48-.72,3.92,3.92,0,0,1-1.53-2.89,3.88,3.88,0,0,1,.87-3.14,4.78,4.78,0,0,1,3.23-1.46l2.48-.27a4.77,4.77,0,0,1,3.51.71,4.53,4.53,0,0,1,.66,6,4.77,4.77,0,0,1-3.26,1.46Zm4.66-4.67a2.17,2.17,0,0,0-.28-.93,1.61,1.61,0,0,0-.59-.57,2,2,0,0,0-.83-.24,5.09,5.09,0,0,0-1,0L78,267a4.85,4.85,0,0,0-1,.22,2.45,2.45,0,0,0-.76.44,1.82,1.82,0,0,0-.46.68,2,2,0,0,0-.1.94,2,2,0,0,0,.3.9,1.81,1.81,0,0,0,.6.57,2.37,2.37,0,0,0,.84.26,4.18,4.18,0,0,0,1,0l2.73-.3a4.87,4.87,0,0,0,1-.21,2.23,2.23,0,0,0,.76-.42,1.69,1.69,0,0,0,.45-.68A2.14,2.14,0,0,0,83.44,268.43Z"/><path class="cls-60" d="M83.76,186.16a2.47,2.47,0,0,0-2,.14,3.18,3.18,0,0,0-1.51,1.89,3.36,3.36,0,0,0-.19,2,1.62,1.62,0,0,0,1.06,1.15,1.82,1.82,0,0,0,.82.12,1.69,1.69,0,0,0,.82-.36,5,5,0,0,0,.88-.9,15.93,15.93,0,0,0,1-1.56,9.29,9.29,0,0,1,3-3.37,4.21,4.21,0,0,1,3.77-.18l.28.1a5.4,5.4,0,0,1,1.93,1.17,4.68,4.68,0,0,1,1.15,1.76,5.85,5.85,0,0,1,.33,2.25,8.81,8.81,0,0,1-.56,2.62,8.73,8.73,0,0,1-1.49,2.69,6.12,6.12,0,0,1-2,1.59,5.6,5.6,0,0,1-2.36.55,6.93,6.93,0,0,1-2.53-.44l-.71-.26,1.13-3.1.56.21a3.45,3.45,0,0,0,2.68,0,3.83,3.83,0,0,0,1.85-2.35,3.27,3.27,0,0,0,.15-2.31,2,2,0,0,0-1.21-1.21,2.32,2.32,0,0,0-.82-.14,1.71,1.71,0,0,0-.83.26,3.51,3.51,0,0,0-.88.77,9,9,0,0,0-1,1.4,16.32,16.32,0,0,1-1.38,2.08,6.71,6.71,0,0,1-1.56,1.47,4.06,4.06,0,0,1-1.84.67,4.81,4.81,0,0,1-2.22-.33l-.14,0a4.6,4.6,0,0,1-1.72-1.09,4.82,4.82,0,0,1-1.07-1.69,5.75,5.75,0,0,1-.34-2.15,7.87,7.87,0,0,1,.5-2.46,8.11,8.11,0,0,1,1.35-2.44,5.79,5.79,0,0,1,1.81-1.48,4.8,4.8,0,0,1,2-.56,5,5,0,0,1,2.06.31l.85.31-1.13,3.1Z"/><path class="cls-60" d="M89.8,171.64l1.34-2.85,14,6.57a1.9,1.9,0,0,1,1,1.08,1.86,1.86,0,0,1-.09,1.49l-3.13,6.68-2.72-1.28,2.33-5q.28-.6-.39-.93l-2.76-1.29-.2.41a3.38,3.38,0,0,1,.44,4.12,5,5,0,0,1-1,1.44,3.79,3.79,0,0,1-1.44.87,4.27,4.27,0,0,1-1.81.18,6.53,6.53,0,0,1-2.15-.63l-7-3.3,1.34-2.85,6.43,3a3.05,3.05,0,0,0,2.13.31,2.29,2.29,0,0,0,1.46-1.38,2.37,2.37,0,0,0,.06-2.28,4.11,4.11,0,0,0-2-1.66Z"/><path class="cls-60" d="M105.27,168.8l-1.59,2.72-15.1-8.84L90.17,160l6,3.49.22-.39a3.64,3.64,0,0,1-.63-2.05,4.62,4.62,0,0,1,.74-2.38A5.28,5.28,0,0,1,97.88,157a4.94,4.94,0,0,1,1.94-.86,6.17,6.17,0,0,1,2.31,0,7.6,7.6,0,0,1,2.52,1l.39.23a7.79,7.79,0,0,1,2.12,1.73,6,6,0,0,1,1.13,2,4.55,4.55,0,0,1,.19,2.1,5.36,5.36,0,0,1-.72,2.05,5.6,5.6,0,0,1-.9,1.18,3.78,3.78,0,0,1-1,.7,3,3,0,0,1-1,.32,5.32,5.32,0,0,1-1,.06l-.23.38Zm-.62-4.18a3.21,3.21,0,0,0,.42-2.52,3.37,3.37,0,0,0-1.68-2l-.26-.15a3.36,3.36,0,0,0-2.61-.47,3.21,3.21,0,0,0-2,1.6,3.17,3.17,0,0,0-.4,2.53,3.43,3.43,0,0,0,1.66,2l.26.15a3.4,3.4,0,0,0,2.59.45A3.16,3.16,0,0,0,104.65,164.62Z"/><path class="cls-60" d="M103.39,142.15a2.17,2.17,0,0,1,.65.7,2.09,2.09,0,0,1,.31.85,2.54,2.54,0,0,1,0,.91,2.41,2.41,0,0,1-.38.85,2.2,2.2,0,0,1-.69.64,2.47,2.47,0,0,1-.84.32,2.33,2.33,0,0,1-.91,0,2.35,2.35,0,0,1-1.84-1.95,2.74,2.74,0,0,1,0-.9,2.27,2.27,0,0,1,.38-.86,2.51,2.51,0,0,1,1.54-1,2.11,2.11,0,0,1,.9,0A2.17,2.17,0,0,1,103.39,142.15Zm5.91,14.21,2.44-3.42-5.2-3.72-2.27,3.18-2.44-1.75,4.1-5.74,7.65,5.47,2.09-2.93,2.44,1.74-6.36,8.91Z"/><path class="cls-60" d="M118.11,144.32,121,141l-8.72-7.5-2.74,3.18-2.27-2,4.8-5.57,11,9.46,2.65-3.07,2.27,2-7.54,8.75Z"/><path class="cls-60" d="M129.85,111.24l2.59-2,4.43,5.61,4.44-3.51-4.44-5.61,2.59-2,10.85,13.73-2.59,2-4.46-5.64-4.44,3.5,4.47,5.65-2.59,2Z"/><path class="cls-60" d="M152.85,100.48l2.62-1.76L162.39,109l-2.61,1.76-1-1.5-.37.25a3.41,3.41,0,0,1-1.75,3.77,4.85,4.85,0,0,1-1.6.71,3.62,3.62,0,0,1-1.67,0,4.27,4.27,0,0,1-1.65-.77,6.8,6.8,0,0,1-1.52-1.65l-4.33-6.43,2.62-1.76,4,5.89a3.07,3.07,0,0,0,1.67,1.36,2.32,2.32,0,0,0,2-.43,2.4,2.4,0,0,0,1.22-1.93,4.1,4.1,0,0,0-.84-2.43Z"/><path class="cls-60" d="M168,105.74l-2.76,1.52-6-10.87,2.76-1.52L163,96.5l.39-.22a3.3,3.3,0,0,1,.43-2.09,4.17,4.17,0,0,1,1.67-1.57,4.67,4.67,0,0,1,1.62-.56,3.65,3.65,0,0,1,1.64.11,4.1,4.1,0,0,1,1.56.88,6.43,6.43,0,0,1,1.35,1.77l3.78,6.88-2.76,1.51L169.24,97a3.18,3.18,0,0,0-1.57-1.52,2.26,2.26,0,0,0-2,.22,2.43,2.43,0,0,0-1.37,1.83,4.2,4.2,0,0,0,.6,2.53Z"/><path class="cls-60" d="M173.15,89l3.36-1.47-2-4.67,2.89-1.26,2,4.67,4.1-1.79,1.2,2.75L180.6,89l2.26,5.18c.2.46.51.6.92.41l3.07-1.34,1.2,2.75-4.81,2.1a1.85,1.85,0,0,1-1.49.06,1.94,1.94,0,0,1-1.05-1.07l-3-6.83-3.37,1.47Z"/><path class="cls-60" d="M191.44,91.46l4-1.33-2-6.07-3.7,1.23-.94-2.84,6.68-2.23,3,8.92L201.83,88l.95,2.85-10.39,3.46Zm3.58-15a2.39,2.39,0,0,1,.12,1,2.31,2.31,0,0,1-.25.87,2.45,2.45,0,0,1-.57.72,2.38,2.38,0,0,1-1.74.58,2.56,2.56,0,0,1-.87-.24,2.23,2.23,0,0,1-.72-.55,2.44,2.44,0,0,1-.48-.83,2.38,2.38,0,0,1-.11-.95,2,2,0,0,1,.25-.87,2.23,2.23,0,0,1,.55-.71A2.15,2.15,0,0,1,192,75a2.22,2.22,0,0,1,.92-.11,2.34,2.34,0,0,1,.88.23,2.38,2.38,0,0,1,.73.55A2.42,2.42,0,0,1,195,76.49Z"/><path class="cls-60" d="M209.45,89.1l-3.07.72-2.83-12.07,3.06-.73.43,1.81.44-.11a3.25,3.25,0,0,1,1-1.89,4.17,4.17,0,0,1,2-1.07,4.93,4.93,0,0,1,1.7-.11,3.79,3.79,0,0,1,1.56.55A4.13,4.13,0,0,1,215,77.47a6.38,6.38,0,0,1,.83,2.06l1.8,7.64-3.07.73L213,81a3.11,3.11,0,0,0-1.1-1.88,2.26,2.26,0,0,0-2-.33,2.44,2.44,0,0,0-1.82,1.39,4.14,4.14,0,0,0-.09,2.61Z"/><path class="cls-60" d="M229.46,83.54l-.45.06a4.14,4.14,0,0,1-.37.87,2.93,2.93,0,0,1-.64.79,3.81,3.81,0,0,1-1,.62,6.1,6.1,0,0,1-3.67.28,4.76,4.76,0,0,1-1.88-1A5.92,5.92,0,0,1,220,83.38a8,8,0,0,1-.78-2.61l-.07-.45a7.61,7.61,0,0,1,.06-2.71,5.78,5.78,0,0,1,.91-2.13A5.22,5.22,0,0,1,221.71,74a5.57,5.57,0,0,1,2-.72,4.35,4.35,0,0,1,2.43.23,3.88,3.88,0,0,1,1.59,1.38l.44-.07L228,73l3.12-.44,2.17,15.3a2,2,0,0,1-.34,1.46,1.87,1.87,0,0,1-1.3.74l-8.27,1.17-.42-3,6.39-.91c.45-.06.63-.34.56-.83Zm-3.39-.38a3.17,3.17,0,0,0,2.23-1.27,3.36,3.36,0,0,0,.56-2.56l0-.3a3.36,3.36,0,0,0-1.25-2.31,3.19,3.19,0,0,0-2.5-.59,3.26,3.26,0,0,0-2.23,1.23,3.4,3.4,0,0,0-.56,2.6l.05.29a3.34,3.34,0,0,0,1.25,2.34A3.29,3.29,0,0,0,226.07,83.16Z"/><path class="cls-60" d="M256.52,81.6a3.67,3.67,0,0,0,1.57-.23,2.24,2.24,0,0,0,1-.73,3,3,0,0,0,.51-1.11,7,7,0,0,0,.18-1.31v-.45l3.3.13,0,.45a6.67,6.67,0,0,1-1.82,4.75,7.32,7.32,0,0,1-9.5-.51,7.4,7.4,0,0,1-1.54-5.39l.15-3.9a9.19,9.19,0,0,1,.57-3,6.07,6.07,0,0,1,1.38-2.2,5.86,5.86,0,0,1,2.1-1.32,7.21,7.21,0,0,1,2.72-.38,7.84,7.84,0,0,1,2.73.56,5.37,5.37,0,0,1,2,1.37,5.64,5.64,0,0,1,1.15,2.1,8.35,8.35,0,0,1,.3,2.71v.45l-3.3-.12,0-.45a6,6,0,0,0-.1-1.26,3.37,3.37,0,0,0-.46-1.14,2.61,2.61,0,0,0-.92-.85,3.23,3.23,0,0,0-1.48-.37,3,3,0,0,0-1.44.26,2.82,2.82,0,0,0-1,.81,3.63,3.63,0,0,0-.64,1.22,6,6,0,0,0-.24,1.48l-.17,4.4a6.12,6.12,0,0,0,.11,1.57,3.68,3.68,0,0,0,.5,1.25,2.47,2.47,0,0,0,1,.85A3.39,3.39,0,0,0,256.52,81.6Z"/><path class="cls-60" d="M268.76,85.17l-3.13-.4,2.24-17.36,3.13.4-.91,7,.45.06a3.72,3.72,0,0,1,1.61-1.54,4,4,0,0,1,2.33-.32,4.63,4.63,0,0,1,1.65.52,3.66,3.66,0,0,1,1.22,1.06,4.22,4.22,0,0,1,.7,1.64,6.89,6.89,0,0,1,0,2.24l-1,7.73-3.12-.4.9-7a3.14,3.14,0,0,0-.37-2.15,2.25,2.25,0,0,0-1.72-1,2.41,2.41,0,0,0-2.19.66,4.15,4.15,0,0,0-1,2.4Z"/><path class="cls-60" d="M288.57,86.8a3.25,3.25,0,0,1-1.72,1.32,4.37,4.37,0,0,1-2.16,0,5.24,5.24,0,0,1-2-.87,5,5,0,0,1-1.43-1.6,6.14,6.14,0,0,1-.73-2.2,7.93,7.93,0,0,1,.15-2.71l.09-.39a7.69,7.69,0,0,1,1-2.5,6.07,6.07,0,0,1,1.55-1.7,5.05,5.05,0,0,1,1.92-.87,4.85,4.85,0,0,1,2.11,0,4.38,4.38,0,0,1,2,.9,3.17,3.17,0,0,1,.95,1.64l.44.1.33-1.46,3.07.68-1.86,8.44c-.11.49.06.78.49.88l.47.1-.65,2.93-2.1-.46a2,2,0,0,1-1.25-.79,1.71,1.71,0,0,1-.24-1.39ZM286,85.36a2.85,2.85,0,0,0,2.35-.41,3.65,3.65,0,0,0,1.34-2.25l.06-.3a3.52,3.52,0,0,0-.27-2.6,3.09,3.09,0,0,0-4.29-1,3.51,3.51,0,0,0-1.34,2.25l-.07.29a3.54,3.54,0,0,0,.27,2.61A2.8,2.8,0,0,0,286,85.36Z"/><path class="cls-60" d="M295.73,87.32l4.15,1.31,3.48-11-4-1.27.91-2.86,7,2.23-4.39,13.82,3.86,1.22-.91,2.86-11-3.49Z"/><path class="cls-60" d="M310.16,92.07l4,1.68,4.45-10.6-3.88-1.62,1.16-2.77,6.78,2.84L317.08,95l3.73,1.57-1.16,2.77L309,94.84Z"/><path class="cls-60" d="M327.64,97.51a2.31,2.31,0,0,0-.24,1,2.37,2.37,0,0,0,.2,1,3.09,3.09,0,0,0,.59.91,3.56,3.56,0,0,0,.92.7,3.41,3.41,0,0,0,1.78.48,2.5,2.5,0,0,0,1.26-.45l1.68,2.59a5,5,0,0,1-1,.57,4.31,4.31,0,0,1-1.36.35,5.9,5.9,0,0,1-1.69-.11,7.35,7.35,0,0,1-2-.76,6.88,6.88,0,0,1-2-1.59,5.7,5.7,0,0,1-1.15-2.08,5.82,5.82,0,0,1-.18-2.44,7.85,7.85,0,0,1,.89-2.67l.07-.13A6.86,6.86,0,0,1,327,92.84a5.93,5.93,0,0,1,2.12-1.14,6.23,6.23,0,0,1,2.36-.21,6.4,6.4,0,0,1,2.37.73A6.24,6.24,0,0,1,336,94a5.93,5.93,0,0,1,1,2.15,5.59,5.59,0,0,1,.08,2.19,6.15,6.15,0,0,1-.64,1.94l-.78,1.48Zm4.84-2.78a3,3,0,0,0-2-.37,2.75,2.75,0,0,0-1.52.79l5.17,2.74a2.26,2.26,0,0,0-.15-1.72A3.21,3.21,0,0,0,332.48,94.73Z"/><path class="cls-60" d="M338.52,109.64l-2.64-1.72,6.78-10.38,2.64,1.72-1,1.55.37.25a3.24,3.24,0,0,1,2-.61,4.2,4.2,0,0,1,2.17.73,5.2,5.2,0,0,1,1.26,1.16,3.75,3.75,0,0,1,.67,1.51,4.18,4.18,0,0,1,0,1.79,6.51,6.51,0,0,1-.92,2l-4.3,6.58-2.63-1.73,3.85-5.9a3.17,3.17,0,0,0,.61-2.1,2.28,2.28,0,0,0-1.12-1.64,2.4,2.4,0,0,0-2.26-.35,4.08,4.08,0,0,0-1.95,1.72Z"/><path class="cls-60" d="M356.36,120.29,356,120a5.17,5.17,0,0,1-.88.34,2.85,2.85,0,0,1-1,.07,3.59,3.59,0,0,1-1.16-.31,5.92,5.92,0,0,1-1.31-.81,5.53,5.53,0,0,1-1.42-1.65,4.79,4.79,0,0,1-.6-2,5.63,5.63,0,0,1,.34-2.28,8.17,8.17,0,0,1,1.34-2.37l.28-.35a7.58,7.58,0,0,1,2-1.83,5.71,5.71,0,0,1,2.17-.81,5.07,5.07,0,0,1,2.16.13,5.26,5.26,0,0,1,1.94,1,4.41,4.41,0,0,1,1.52,1.91,3.91,3.91,0,0,1,.09,2.1l.35.28,1.12-1.41,2.47,2-9.58,12.12a1.9,1.9,0,0,1-1.29.76,1.83,1.83,0,0,1-1.43-.42l-6.55-5.18,1.86-2.36,5.06,4a.63.63,0,0,0,1-.16Zm-2.07-2.71a3.16,3.16,0,0,0,2.46.74A3.35,3.35,0,0,0,359,117l.19-.24a3.37,3.37,0,0,0,.81-2.49A3.19,3.19,0,0,0,358.7,112a3.25,3.25,0,0,0-2.44-.77,3.37,3.37,0,0,0-2.26,1.39l-.19.23a3.38,3.38,0,0,0-.82,2.52A3.22,3.22,0,0,0,354.29,117.58Z"/><path class="cls-60" d="M365.48,123.75a2.49,2.49,0,0,0-.58,2,3.07,3.07,0,0,0,.32,1,3.45,3.45,0,0,0,.7.92,3.3,3.3,0,0,0,1.59.94,2.35,2.35,0,0,0,1.33-.1l.93,2.95a5.64,5.64,0,0,1-1.13.29,4.44,4.44,0,0,1-1.4,0,5.44,5.44,0,0,1-1.61-.56,7.23,7.23,0,0,1-1.74-1.27,6.93,6.93,0,0,1-1.54-2.08,5.75,5.75,0,0,1-.55-2.31,5.89,5.89,0,0,1,.49-2.4,7.64,7.64,0,0,1,1.58-2.33l.1-.11a6.64,6.64,0,0,1,2.14-1.55,5.85,5.85,0,0,1,2.35-.53,6.12,6.12,0,0,1,2.33.43,6.55,6.55,0,0,1,2.08,1.34,6.23,6.23,0,0,1,1.61,2.31,6,6,0,0,1,.4,2.34,5.65,5.65,0,0,1-.51,2.13,6.38,6.38,0,0,1-1.13,1.7L372.08,130Zm5.41-1.37a2.94,2.94,0,0,0-1.83-.9,2.79,2.79,0,0,0-1.68.35l4.24,4a2.25,2.25,0,0,0,.32-1.7A3.29,3.29,0,0,0,370.89,122.38Z"/><path class="cls-60" d="M390.21,145.72l4.44,6.05L387.52,157l-1.78-2.42,1.57-1.16-.27-.36a3.18,3.18,0,0,1-2,0,4,4,0,0,1-2-1.66,5.65,5.65,0,0,1-1-2.08,5.07,5.07,0,0,1,0-2.26,6.58,6.58,0,0,1,1-2.29,9.54,9.54,0,0,1,2.21-2.18l3.3-2.42a8.47,8.47,0,0,1,2.72-1.39,6.22,6.22,0,0,1,2.58-.23,5.69,5.69,0,0,1,2.32.86,7.25,7.25,0,0,1,1.94,1.86,6.93,6.93,0,0,1,1.19,2.45,5.66,5.66,0,0,1-.79,4.61,7.4,7.4,0,0,1-1.76,1.82l-.24.18-2-2.66.24-.18a3.22,3.22,0,0,0,1.44-2.07,3.07,3.07,0,0,0-.7-2.32,3,3,0,0,0-2.11-1.3,4.59,4.59,0,0,0-3.13,1.17l-3,2.19q-3.25,2.4-1.31,5.06a3,3,0,0,0,2,1.34,2.87,2.87,0,0,0,2.15-.64l-2.48-3.38Z"/><path class="cls-60" d="M395.11,169.37l-1.71-2.83,4.49-2.71a1.49,1.49,0,0,0,.68-.78,1.31,1.31,0,0,0-.22-1.08l-2-3.25-5.64,3.42L389,159.31l15-9.05,3.47,5.73a6.82,6.82,0,0,1,.91,2.22,4.86,4.86,0,0,1,0,2,4.56,4.56,0,0,1-.77,1.69,4.85,4.85,0,0,1-1.42,1.28l-.51.31a3.77,3.77,0,0,1-2,.55,3.61,3.61,0,0,1-2.15-.77l-.39.23a2,2,0,0,1-.83,2.73Zm4-12.28,1.63,2.7a2.69,2.69,0,0,0,1.42,1.27,2.07,2.07,0,0,0,1.69-.29l.25-.16a2.05,2.05,0,0,0,1-1.31,2.43,2.43,0,0,0-.4-1.9L403,154.71Z"/><path class="cls-60" d="M401.54,175,413,169.47l-.19-.4-6.12,1.15-1.38-2.83.27-.14,7.52-1.33,2.83,5.8L403,178l1.9,3.91-2.83,1.38L396.54,172l2.83-1.39Z"/><path class="cls-60" d="M420.8,183.12,423,189l-10.33,3.93.91,2.38-3,1.12-.9-2.38-3.09,1.17-1.17-3.09,3.09-1.17-2.78-7.29,4.26-1.62ZM410.18,185l-.42.16,1.76,4.63,8.79-3.34-.16-.42Z"/><polygon class="cls-61" points="265.77 420.29 265.77 420.29 269.5 442 269.5 442 265.77 420.29"/><polygon class="cls-61" points="230.5 442 230.5 442 234.23 420.29 234.23 420.29 230.5 442"/><polygon class="cls-61" points="259.75 401.75 259.75 401.75 281.54 404.92 281.54 404.92 259.75 401.75"/><polygon class="cls-61" points="218.46 404.92 218.46 404.92 240.25 401.75 240.25 401.75 218.46 404.92"/><polygon class="cls-61" points="240.25 401.75 240.25 401.75 250 382 250 382 240.25 401.75"/><polygon class="cls-61" points="250 382 250 382 259.75 401.75 259.75 401.75 250 382"/><polygon class="cls-61" points="250.04 415.23 269.5 442 250 431.75 250 415.2 250.04 415.23"/><polygon class="cls-61" points="250 415.2 250 431.75 230.5 442 249.96 415.23 250 415.2"/><polygon class="cls-61" points="250.03 415.18 265.77 420.29 269.5 442 250.04 415.23 250.03 415.18"/><polygon class="cls-61" points="249.96 415.23 230.5 442 234.23 420.29 249.96 415.18 249.96 415.23"/><polygon class="cls-61" points="249.96 415.18 234.23 420.29 218.46 404.92 249.93 415.14 249.96 415.18"/><polygon class="cls-61" points="250.07 415.14 281.54 404.92 265.77 420.29 250.03 415.18 250.07 415.14"/><polygon class="cls-61" points="249.93 415.14 218.46 404.92 240.25 401.75 249.98 415.14 249.93 415.14"/><polygon class="cls-61" points="250.02 415.14 259.75 401.75 281.54 404.92 250.07 415.14 250.02 415.14"/><polygon class="cls-61" points="249.98 415.14 240.25 401.75 250 382 250 415.1 249.98 415.14"/><polygon class="cls-61" points="250 415.1 250.02 415.14 250.07 415.14 250.03 415.18 250.04 415.23 250 415.2 249.96 415.23 249.96 415.18 249.93 415.14 249.98 415.14 250 415.1"/><polygon class="cls-61" points="250 415.1 250 382 259.75 401.75 250.02 415.14 250 415.1"/><polygon class="cls-62" points="263.67 419.52 263.67 419.52 266.9 438.34 266.9 438.34 263.67 419.52"/><polygon points="233.1 438.34 233.1 438.34 236.33 419.52 236.33 419.52 233.1 438.34"/><polygon class="cls-62" points="258.45 403.44 258.45 403.44 277.34 406.19 277.34 406.19 258.45 403.44"/><polygon class="cls-62" points="222.66 406.19 222.66 406.19 241.55 403.44 241.55 403.44 222.66 406.19"/><polygon points="241.55 403.44 241.55 403.44 250 386.32 250 386.32 241.55 403.44"/><polygon class="cls-62" points="250 386.32 250 386.32 258.45 403.44 258.45 403.44 250 386.32"/><polygon class="cls-63" points="250.04 415.13 266.9 438.34 250 429.45 250 415.11 250.04 415.13"/><polygon class="cls-63" points="250 415.11 250 429.45 233.1 438.34 249.96 415.13 250 415.11"/><polygon class="cls-64" points="250.03 415.08 263.67 419.52 266.9 438.34 250.04 415.13 250.03 415.08"/><polygon class="cls-65" points="249.96 415.13 233.1 438.34 236.33 419.52 249.97 415.08 249.96 415.13"/><polygon class="cls-64" points="249.97 415.08 236.33 419.52 222.66 406.19 249.94 415.06 249.97 415.08"/><polygon class="cls-66" points="250.06 415.06 277.34 406.19 263.67 419.52 250.03 415.08 250.06 415.06"/><polygon class="cls-67" points="249.94 415.06 222.66 406.19 241.55 403.44 249.98 415.05 249.94 415.06"/><polygon class="cls-68" points="250.02 415.05 258.45 403.44 277.34 406.19 250.06 415.06 250.02 415.05"/><polygon class="cls-69" points="249.98 415.05 241.55 403.44 250 386.32 250 415.01 249.98 415.05"/><polygon class="cls-70" points="250 415.01 250.02 415.05 250.06 415.06 250.03 415.08 250.04 415.13 250 415.11 249.96 415.13 249.97 415.08 249.94 415.06 249.98 415.05 250 415.01"/><polygon class="cls-64" points="250 415.01 250 386.32 258.45 403.44 250.02 415.05 250 415.01"/></g></g></svg>